<svg width="1920" height="431" viewBox="0 0 1920 431" fill="none" xmlns="http://www.w3.org/2000/svg">
<g clip-path="url(#clip0)">
<path d="M0 301.7L35.6 280.15C71.0667 258.6 142.667 215.5 213.333 237.05C284.4 258.6 356 344.8 426.667 351.938C497.733 359.616 569.333 286.884 640 222.638C711.067 157.584 782.667 101.016 853.333 107.75C924.4 114.484 996 187.216 1066.67 229.912C1137.73 273.416 1209.33 286.884 1280 251.462C1351.07 215.5 1422.67 129.3 1493.33 136.438C1564.4 144.116 1636 243.784 1706.67 301.7C1777.73 359.616 1849.33 373.084 1884 380.762L1920 387.9V431H1884.4C1848.93 431 1777.33 431 1706.67 431C1635.6 431 1564 431 1493.33 431C1422.27 431 1350.67 431 1280 431C1208.93 431 1137.33 431 1066.67 431C995.6 431 924 431 853.333 431C782.267 431 710.667 431 640 431C568.933 431 497.333 431 426.667 431C355.6 431 284 431 213.333 431C142.267 431 70.6667 431 36 431H0V301.7Z" fill="url(#paint0_linear)"/>
<path d="M0 -66.8062L40 -25.3224C80 16.1614 160 99.1289 240 112.87C320 127.649 400 70.6088 480 57.6452C560 44.6815 640 70.6089 720 112.87C800 153.576 880 210.617 960 223.58C1040 236.544 1120 210.617 1200 154.354C1280 99.129 1360 16.1614 1440 16.1614C1520 16.1614 1600 99.129 1680 154.354C1760 210.617 1840 236.544 1880 251.323L1920 265.064V430.999H1880C1840 430.999 1760 430.999 1680 430.999C1600 430.999 1520 430.999 1440 430.999C1360 430.999 1280 430.999 1200 430.999C1120 430.999 1040 430.999 960 430.999C880 430.999 800 430.999 720 430.999C640 430.999 560 430.999 480 430.999C400 430.999 320 430.999 240 430.999C160 430.999 80 430.999 40 430.999H0V-66.8062Z" fill="#FFE83C" fill-opacity="0.2"/>
</g>
<defs>
<linearGradient id="paint0_linear" x1="960" y1="107.204" x2="960" y2="431" gradientUnits="userSpaceOnUse">
<stop stop-color="#FFE83C"/>
<stop offset="1" stop-color="#FFE83C" stop-opacity="0.25"/>
</linearGradient>
<clipPath id="clip0">
<rect width="1920" height="431" fill="white"/>
</clipPath>
</defs>
</svg>
